<?xml version="1.0" ?><svg viewBox="0 0 64 64" xmlns="http://www.w3.org/2000/svg"><title/><g id="Astronaut"><path d="M29,57h6a1,1,0,0,0,0-2H29a1,1,0,0,0,0,2Z"/><path d="M42,10H22a3.0033,3.0033,0,0,0-3,3V26a3.0033,3.0033,0,0,0,3,3H42a3.0033,3.0033,0,0,0,3-3V13A3.0033,3.0033,0,0,0,42,10Zm1,16a1.0009,1.0009,0,0,1-1,1H22a1.0009,1.0009,0,0,1-1-1V13a1.0009,1.0009,0,0,1,1-1H42a1.0009,1.0009,0,0,1,1,1Z"/><path d="M54,16V11a1,1,0,0,0-2,0v5H50.568a18.9807,18.9807,0,0,0-37.1171,0H12V11a1,1,0,0,0-2,0v5a3.0033,3.0033,0,0,0-3,3v2a3.0033,3.0033,0,0,0,3,3h3.4464a18.8815,18.8815,0,0,0,4.671,8.9484c-.0292.0273-.0656.0462-.094.0745A3.4627,3.4627,0,0,0,17.3511,37H17a8.914,8.914,0,0,0-3.3808.6744,3.0349,3.0349,0,0,0-3.5421,1.3212A2.9617,2.9617,0,0,0,9.69,40.7648,8.8945,8.8945,0,0,0,8,46V62a1,1,0,0,0,1,1H55a1,1,0,0,0,1-1V46a8.8958,8.8958,0,0,0-1.69-5.2352,2.9541,2.9541,0,0,0-.3846-1.7643A3.0352,3.0352,0,0,0,50.38,37.674,8.9148,8.9148,0,0,0,47,37h-.3481a3.441,3.441,0,0,0-.782-4.0577A18.9834,18.9834,0,0,0,50.5653,24H54a3.0033,3.0033,0,0,0,3-3V19A3.0033,3.0033,0,0,0,54,16ZM13.0989,21.8248c.0058.0581.0032.1171.0095.1752H10a1.0009,1.0009,0,0,1-1-1V19a1.0009,1.0009,0,0,1,1-1h3.1084c-.0063.0585-.0038.1178-.01.1763C13.0387,18.782,13,19.3906,13,20S13.0389,21.22,13.0989,21.8248ZM11.8066,40A1,1,0,0,1,12.67,39.5a.9554.9554,0,0,1,.47.1274c.03.0158.0585.03.089.0426l.0019.0014,8.6025,4.9663a.9753.9753,0,0,1,.4619.6006A1,1,0,0,1,20.83,46.3638l-8.6563-4.9976a.9906.9906,0,0,1-.4668-.6025l0-.0005A.9968.9968,0,0,1,11.8066,40ZM39,61H25V51H39ZM50.7715,39.67c.03-.0132.06-.0273.0889-.043a.9791.9791,0,0,1,1.3359.377.9971.9971,0,0,1,.0967.7593.9871.9871,0,0,1-.4629.6l-8.6572,4.9985a1,1,0,0,1-1.4678-1.124.9765.9765,0,0,1,.4648-.6021ZM47,39a7.1417,7.1417,0,0,1,.8444.05l-6.6715,3.852a2.9611,2.9611,0,0,0-1.4,1.8218,3.0132,3.0132,0,0,0,.6515,2.7638c.0073.0083.0164.0142.0238.0224a2.96,2.96,0,0,0,1.4467.8872c.0348.0092.0705.0058.1054.0138a3.0163,3.0163,0,0,0,.5649.0741c.0348.0012.0694.0136.1041.0136.0516,0,.1015-.0174.1529-.02.0595-.0029.1187.0021.1782-.0044V58a1,1,0,0,0,2,0V47.6169l7.834-4.5231a3.0611,3.0611,0,0,0,.4014-.2789A6.9294,6.9294,0,0,1,54,46V61H41V50a1,1,0,0,0-1-1H24a1,1,0,0,0-1,1V61H10V46a6.9322,6.9322,0,0,1,.7646-3.1855,3.109,3.109,0,0,0,.4053.2817L19,47.6168V58a1,1,0,0,0,2,0V48.4756c.0613.0067.1223.0016.1836.0045.05.0025.0977.0194.1475.0194.0336,0,.067-.0121.1007-.0132a3.0087,3.0087,0,0,0,.5865-.0774c.0289-.0068.0584-.0037.0872-.0114a2.9591,2.9591,0,0,0,1.4433-.884c.0083-.0091.0186-.0158.0268-.0252a3.0134,3.0134,0,0,0,.7473-2.1713l0-.01a3.0239,3.0239,0,0,0-.0957-.5827,2.96,2.96,0,0,0-1.3974-1.82l-6.674-3.8531A7.0689,7.0689,0,0,1,17,39H47ZM19,35.5a1.51,1.51,0,0,1,.4385-1.0635,1.5279,1.5279,0,0,1,.5664-.3545A1.6414,1.6414,0,0,1,20.5,34h23a1.6393,1.6393,0,0,1,.4842.08A1.4992,1.4992,0,0,1,43.5,37h-23A1.5017,1.5017,0,0,1,19,35.5ZM48.9228,21.5425c-.0227.2414-.0606.48-.0939.7192a16.9827,16.9827,0,0,1-4.8338,9.7744A3.47,3.47,0,0,0,43.5,32h-23a3.47,3.47,0,0,0-.4951.0361,16.6232,16.6232,0,0,1-4.76-9.2085A16.3732,16.3732,0,0,1,15,20q0-.7119.0615-1.423c.0409-.472.1021-.9413.1836-1.4046v0l.001-.0075a16.9842,16.9842,0,0,1,33.5669.4525c.04.2752.0818.55.1082.8282C48.968,18.9581,49,19.4752,49,20,49,20.5171,48.97,21.0312,48.9228,21.5425ZM55,21a1.0009,1.0009,0,0,1-1,1H50.8916l0-.003A18.8471,18.8471,0,0,0,51,20a19.0972,19.0972,0,0,0-.1075-2H54a1.0009,1.0009,0,0,1,1,1Z"/></g></svg>