<svg xmlns="http://www.w3.org/2000/svg" width="32" height="32" id="planet">
	<path
		d="M5 .969a.5.5 0 0 0-.406.531v.469H4a.5.5 0 1 0 0 1h.594v.5a.5.5 0 1 0 1 0v-.5h.468a.5.5 0 1 0 0-1h-.468V1.5a.5.5 0 0 0-.532-.531.5.5 0 0 0-.062 0zm5.656 1.562c-2.792 0-5.094 2.272-5.094 5.063 0 2.79 2.303 5.093 5.094 5.093 2.792 0 5.094-2.303 5.094-5.093 0-2.791-2.302-5.063-5.094-5.063zm0 1c.991 0 1.883.381 2.594.969h-1.063a.5.5 0 0 0-.093 0 .502.502 0 1 0 .094 1h1.968c.382.617.594 1.317.594 2.094 0 .351-.071.704-.156 1.031H13.25a.5.5 0 0 0-.094 0 .502.502 0 1 0 .094 1h.938c-.712 1.222-2.027 2.063-3.532 2.063-.292 0-.569-.036-.844-.094a.506.506 0 0 0-.218-1H8.063a.5.5 0 0 0-.063 0 .501.501 0 0 0-.063.031c-.828-.751-1.375-1.836-1.375-3.031a.504.504 0 0 0 .063-.032h1.969a.5.5 0 1 0 0-1H6.719c.468-1.736 2.053-3.03 3.937-3.03zm17.625 1.5a.5.5 0 0 0-.343.5v.5h-.5a.5.5 0 0 0-.125 0 .504.504 0 1 0 .125 1h.5v.563a.5.5 0 1 0 1 0V7.03h.562a.5.5 0 1 0 0-1h-.563v-.5a.5.5 0 0 0-.593-.5.5.5 0 0 0-.063 0zM10 6.5a.5.5 0 1 0 .5.5l-.031-.125A.488.488 0 0 0 10 6.5zm-.031 2.125a.502.502 0 0 0 .156 1h1.531a.5.5 0 1 0 0-1h-1.531a.5.5 0 0 0-.094 0 .502.502 0 0 0-.062 0zm7.219.438a.5.5 0 0 0-.375.53v.563h-.594a.5.5 0 0 0-.125 0 .504.504 0 1 0 .125 1h.593v.469a.5.5 0 1 0 1 0v-.469h.47a.5.5 0 1 0 0-1h-.47v-.562a.5.5 0 0 0-.562-.531.5.5 0 0 0-.063 0zm6.687.562c-1.952 0-3.563 1.58-3.563 3.531 0 1.952 1.61 3.563 3.563 3.563 1.952 0 3.531-1.611 3.531-3.563a3.53 3.53 0 0 0-3.531-3.531zm0 1c.56 0 1.052.197 1.469.5h-1.469a.5.5 0 0 0-.063 0 .501.501 0 1 0 .063 1h2.313c.144.32.218.655.218 1.031 0 .584-.204 1.13-.531 1.563h-1.469a.5.5 0 0 0-.093 0 .502.502 0 0 0-.22.969c-.073.01-.14.03-.218.03a2.546 2.546 0 0 1-2.5-2.062h1.5a.5.5 0 1 0 0-1h-1.5a2.557 2.557 0 0 1 2.5-2.031zm-19.438.5a.5.5 0 0 0-.375.5v.5H3.47a.5.5 0 0 0-.094 0 .502.502 0 1 0 .094 1h.594v.563a.5.5 0 1 0 1 0v-.563h.468a.5.5 0 1 0 0-1h-.468v-.5a.5.5 0 0 0-.563-.5.5.5 0 0 0-.063 0zM25 12.5a.5.5 0 1 0 .5.5l-.031-.125A.488.488 0 0 0 25 12.5zM9.656 13.656c-4.711 0-8.554 3.784-8.656 8.469a.501.501 0 0 0 0 .406c.115 4.674 3.953 8.438 8.656 8.438 4.704 0 8.594-3.884 8.594-8.657 0-4.772-3.89-8.656-8.594-8.656zm0 1a7.46 7.46 0 0 1 3.813 1.063h-2.875a.5.5 0 0 0-.125 0 .504.504 0 1 0 .125 1h4.187c.006.005.026-.005.031 0a7.79 7.79 0 0 1 2 3.031H8.595a.5.5 0 0 0-.063 0 .501.501 0 1 0 .063 1h8.5a7.868 7.868 0 0 1 0 3.125h-3.375a.5.5 0 0 0-.094 0 .502.502 0 1 0 .094 1h3.094a7.722 7.722 0 0 1-2.032 3.063h-4.125a.5.5 0 0 0-.156 0 .506.506 0 1 0 .156 1h2.813a7.435 7.435 0 0 1-3.813 1.03c-4.063 0-7.366-3.16-7.625-7.155h5.563a.5.5 0 1 0 0-1H2.03a7.531 7.531 0 0 1 .844-3.032h3.656a.5.5 0 1 0 0-1H3.5c1.393-1.887 3.627-3.125 6.156-3.125zm-1.281 3.125a.506.506 0 0 0 .219 1h.062a.5.5 0 1 0 0-1h-.062a.5.5 0 0 0-.156 0 .506.506 0 0 0-.063 0zm12.844 1.5a.5.5 0 0 0-.375.532v.468h-.5a.5.5 0 0 0-.032 0 .5.5 0 0 0 .032 1h.5v.5a.5.5 0 1 0 1 0v-.5h.5a.5.5 0 1 0 0-1h-.5v-.468a.5.5 0 0 0-.5-.532.5.5 0 0 0-.063 0 .5.5 0 0 0-.062 0zm-15.813.469a.5.5 0 0 0 .125 1h1.094a.5.5 0 1 0 0-1H5.531a.5.5 0 0 0-.031 0 .5.5 0 0 0-.094 0zm23.938 0a.5.5 0 0 0-.344.5v.563h-.563a.5.5 0 1 0 0 1H29v.5a.5.5 0 1 0 1 0v-.5h.5a.5.5 0 1 0 0-1H30v-.563a.5.5 0 0 0-.594-.5.5.5 0 0 0-.062 0zM9.53 21.813a.5.5 0 0 0 .125 1h1.688a.5.5 0 1 0 0-1H9.656a.5.5 0 0 0-.031 0 .5.5 0 0 0-.094 0zm2.125 2.03c-.229 0-.469.257-.469.563 0 .23.24.438.47.438.305 0 .53-.207.53-.438 0-.307-.225-.562-.53-.562zm-6.312 2.032a.504.504 0 0 0 .187 1h3.125a.5.5 0 1 0 0-1H5.531a.5.5 0 0 0-.125 0 .504.504 0 0 0-.062 0zm13.812 1.5a.5.5 0 0 0-.375.5v.594h-.5a.5.5 0 0 0-.125 0 .504.504 0 1 0 .125 1h.5v.468a.5.5 0 1 0 1 0v-.468h.563a.5.5 0 1 0 0-1h-.563v-.594a.5.5 0 0 0-.562-.5.5.5 0 0 0-.063 0zm-10.562.531c-.23 0-.469.225-.469.532 0 .307.24.53.469.53a.516.516 0 0 0 .531-.53.516.516 0 0 0-.531-.532z"
		color="#000" font-family="Sans" font-weight="400" overflow="visible"
		style="text-indent:0;text-align:start;line-height:normal;text-transform:none;block-progression:tb;marker:none;-inkscape-font-specification:Sans"></path>
</svg>