<svg fill="white" xmlns="http://www.w3.org/2000/svg" width="32" height="32" id="space">
	<path
		d="M15.969.938c-2.214 0-4.44.582-6.406 1.718-3.79 2.225-6.164 6.113-6.407 10.438a.5.5 0 0 0 0 .062.5.5 0 0 0-.031.094V13.906h-.531c-.85 0-1.563.682-1.563 1.531V16H.97C.395 16 0 16.49 0 17.063v1.03c0 .573.395 1.095.969 1.095h.062v.53c0 .896.713 1.626 1.563 1.626h.531v.968a.5.5 0 0 0 0 .125v2.125a.5.5 0 0 0 .313.47c.942.407 1.906.786 2.906 1.093v3.125a.5.5 0 0 0 .375.5c5.882 1.726 12.618 1.726 18.5 0a.5.5 0 0 0 .343-.5v-3.156a28.85 28.85 0 0 0 2.907-1.063.5.5 0 0 0 .312-.468v-2.157a.5.5 0 0 0 0-.093c-.007-.306.002-.647 0-.97h.625c.85 0 1.563-.73 1.563-1.624v-.532h.062c.574 0 .969-.521.969-1.093v-1.032c0-.572-.395-1.062-.969-1.062h-.062v-.563c0-.85-.713-1.53-1.563-1.53h-.625v-.032c-.01-.314-.01-.625-.031-.906-.003-.042.003-.084 0-.125-.01-.115-.02-.268-.031-.375a.5.5 0 0 0-.032-.094.5.5 0 0 0-.03-.094 13.085 13.085 0 0 0-6.282-9.625.5.5 0 0 0-.031 0A12.728 12.728 0 0 0 15.969.937zm-.531 1.03v5.97c0 .727 1.03.727 1.03 0v-5.97c1.873.078 3.714.572 5.376 1.532.453.272.902.584 1.312.906-.824.95-1.281 2.196-1.281 3.532 0 .244.228.5.469.5.321 0 .562-.256.562-.5 0-1.02.397-2.03 1.063-2.813a11.977 11.977 0 0 1 3.625 6.719c-3.516-1.003-7.399-1.525-11.282-1.563-4.16-.04-8.29.464-12 1.531a.5.5 0 0 0-.03 0 11.834 11.834 0 0 1 3.624-6.718C8.592 5.882 9 6.9 9 7.937c0 .241.26.5.5.5.321 0 .563-.259.563-.5a5.16 5.16 0 0 0-1.344-3.5c.426-.332.867-.658 1.344-.937 1.652-.955 3.509-1.45 5.374-1.531zm.874 9.313c3.95.04 7.888.607 11.407 1.656.03.37.049.838.062 1.282v7.687c-7.278 2.176-16.456 2.175-23.656 0v-8.093c0-.31.008-.602.031-.907.033-.01.043-.02.094-.031.074-.017.137-.036.219-.063a.844.844 0 0 1 .093-.03c3.6-1.036 7.679-1.54 11.75-1.5zM2.595 14.906h.531v5.438h-.531c-.275 0-.563-.228-.563-.625v-1.032a.5.5 0 0 0-.5-.5h-.5c-.003-.013-.031-.055-.031-.093v-1.032c0-.039.028-.056.031-.062h.5a.5.5 0 0 0 .5-.5v-1.063c0-.281.288-.53.563-.53zm26.218 0h.594c.275 0 .563.25.563.531V16.5a.5.5 0 0 0 .5.5h.5c.003.006.031.023.031.063v1.03c0 .04-.028.08-.031.095h-.5a.5.5 0 0 0-.5.5v1.03c0 .398-.288.626-.563.626h-.625v-.563c.019-1.655.045-3.367.032-4.875zM4.125 22.97c7.27 2.118 16.318 2.12 23.656 0v1.25c-7.273 3.008-16.466 3.013-23.656 0v-1.25zm3.219 3.437c5.508 1.485 11.677 1.49 17.218 0v2.469c-5.486 1.53-11.735 1.505-17.218-.031v-2.438z"
		color="#000" font-family="Sans" font-weight="400" overflow="visible"
		style="text-indent:0;text-align:start;line-height:normal;text-transform:none;block-progression:tb;marker:none;-inkscape-font-specification:Sans"></path>
</svg>