<svg fill="black" id="rkt2" enable-background="new 0 0 32 32" version="1.1" viewBox="0 0 32 32" xml:space="preserve"
	xmlns="http://www.w3.org/2000/svg" xmlns:xlink="http://www.w3.org/1999/xlink">
	<g id="Layer_1"/>
	<g id="Capa_2">
		<g>
			<path d="M15.942,4.068c-2.22,0-4.305,0.586-6.113,1.609C7.58,4.468,6.008,4.285,5.156,5.137C4.352,5.941,4.502,7.431,5.603,9.58    c-1.339,1.986-2.122,4.378-2.122,6.948c0,6.871,5.59,12.461,12.461,12.461c2.62,0,5.053-0.815,7.061-2.202    c1.284,0.671,2.342,1.012,3.161,1.012c0.582,0,1.045-0.17,1.384-0.511c0.854-0.853,0.634-2.479-0.651-4.829    c0.959-1.765,1.505-3.786,1.505-5.932C28.403,9.657,22.813,4.068,15.942,4.068z M27.58,16.528c0,3.79-1.822,7.162-4.636,9.289    c-0.308-0.176-0.62-0.366-0.933-0.579l-0.489-0.332c-2.411-1.468-5.25-3.787-7.994-6.531c-2.744-2.744-5.064-5.583-6.531-7.994    c-0.143-0.235-0.286-0.483-0.429-0.741c2.121-2.878,5.532-4.75,9.374-4.75C22.36,4.89,27.58,10.111,27.58,16.528z M5.738,5.719    C6.235,5.22,7.413,5.393,9.009,6.18c-1.086,0.73-2.05,1.628-2.858,2.655C5.413,7.289,5.263,6.194,5.738,5.719z M4.304,16.528    c0-2.249,0.643-4.35,1.753-6.132c0.08,0.137,0.157,0.28,0.238,0.413c1.5,2.466,3.863,5.359,6.652,8.148    c2.788,2.789,5.682,5.151,8.131,6.641l0.472,0.321c0.216,0.147,0.433,0.285,0.648,0.416c-1.808,1.157-3.954,1.832-6.255,1.832    C9.525,28.167,4.304,22.946,4.304,16.528z M26.967,26.708c-0.485,0.487-1.621,0.315-3.227-0.47    c1.036-0.834,1.936-1.83,2.661-2.949C27.268,24.993,27.475,26.201,26.967,26.708z"/><path d="M3.129,11.619l-0.68-0.076l-0.075-0.68c-0.017-0.156-0.149-0.275-0.307-0.275s-0.289,0.119-0.307,0.275l-0.075,0.68    l-0.68,0.076c-0.156,0.017-0.275,0.149-0.275,0.307c0,0.157,0.118,0.289,0.275,0.307l0.68,0.075l0.075,0.68    c0.017,0.156,0.149,0.275,0.307,0.275s0.289-0.119,0.307-0.275l0.075-0.68l0.68-0.075c0.156-0.017,0.275-0.149,0.275-0.307    C3.404,11.769,3.285,11.636,3.129,11.619z"/><path d="M21.279,12.037c0.675,0.675,1.477,1.039,2.152,1.039c0.393,0,0.743-0.123,1-0.38c0.699-0.699,0.409-2.083-0.659-3.152    c-0.483-0.483-1.055-0.827-1.61-0.969c-0.633-0.162-1.179-0.051-1.542,0.311c-0.362,0.362-0.472,0.91-0.311,1.542    C20.452,10.982,20.796,11.554,21.279,12.037z M21.202,9.467c0.094-0.094,0.239-0.141,0.42-0.141c0.102,0,0.215,0.015,0.335,0.046    c0.409,0.105,0.859,0.38,1.233,0.754c0.757,0.758,0.973,1.675,0.659,1.988c-0.313,0.315-1.231,0.099-1.988-0.659    c-0.374-0.374-0.649-0.824-0.754-1.233C21.021,9.888,21.056,9.613,21.202,9.467z"/><path d="M21.135,3.356l1.21,0.134l0.134,1.21c0.017,0.157,0.149,0.275,0.307,0.275c0.157,0,0.289-0.119,0.307-0.275l0.134-1.21    l1.21-0.134c0.156-0.017,0.275-0.149,0.275-0.307c0-0.157-0.118-0.289-0.275-0.307l-1.21-0.134l-0.134-1.21    c-0.017-0.156-0.149-0.275-0.307-0.275c-0.157,0-0.289,0.118-0.307,0.275l-0.134,1.21l-1.21,0.134    C20.978,2.76,20.86,2.892,20.86,3.049C20.86,3.207,20.979,3.339,21.135,3.356z"/><path d="M12.586,3.225c0.06,0.06,0.139,0.09,0.218,0.09c0.079,0,0.158-0.03,0.218-0.09l0.41-0.41c0.121-0.121,0.121-0.316,0-0.436    l-0.41-0.41c-0.058-0.058-0.136-0.09-0.218-0.09s-0.16,0.033-0.218,0.09l-0.41,0.41c-0.058,0.058-0.09,0.136-0.09,0.218    s0.033,0.16,0.09,0.218L12.586,3.225z"/><path d="M16.677,1.244c0.058,0.058,0.136,0.09,0.218,0.09s0.16-0.033,0.218-0.09l0.41-0.41c0.121-0.121,0.121-0.316,0-0.436    l-0.41-0.41c-0.12-0.121-0.315-0.121-0.436,0l-0.41,0.41c-0.058,0.058-0.09,0.136-0.09,0.218s0.033,0.16,0.09,0.218L16.677,1.244z    "/><path d="M24.556,5.579l0.41,0.41c0.058,0.058,0.136,0.09,0.218,0.09s0.16-0.033,0.218-0.09l0.41-0.41    c0.058-0.058,0.09-0.136,0.09-0.218c0-0.082-0.033-0.16-0.09-0.218l-0.41-0.41c-0.121-0.121-0.316-0.12-0.436,0l-0.41,0.41    C24.435,5.263,24.435,5.458,24.556,5.579z"/><path d="M30.368,13.295c0.06,0.06,0.139,0.09,0.218,0.09c0.079,0,0.158-0.03,0.218-0.09l0.41-0.41    c0.058-0.058,0.09-0.136,0.09-0.218c0-0.082-0.033-0.16-0.09-0.218l-0.41-0.41c-0.116-0.116-0.321-0.116-0.436,0l-0.41,0.41    c-0.121,0.121-0.121,0.316,0,0.436L30.368,13.295z"/><path d="M1.849,6.436c0.058,0.058,0.136,0.09,0.218,0.09s0.16-0.033,0.218-0.09l0.41-0.41c0.058-0.058,0.09-0.137,0.09-0.218    c0-0.082-0.033-0.16-0.09-0.218l-0.41-0.41c-0.121-0.121-0.316-0.121-0.436,0l-0.41,0.41c-0.058,0.058-0.09,0.136-0.09,0.218    c0,0.082,0.033,0.16,0.09,0.218L1.849,6.436z"/><path d="M7.195,3.636c0.06,0.06,0.139,0.09,0.218,0.09s0.158-0.03,0.218-0.09l0.41-0.41c0.058-0.058,0.09-0.136,0.09-0.218    S8.1,2.847,8.042,2.789l-0.41-0.41c-0.121-0.121-0.316-0.121-0.436,0l-0.41,0.41c-0.058,0.058-0.09,0.136-0.09,0.218    s0.033,0.16,0.09,0.218L7.195,3.636z"/><path d="M31.623,20.349l-0.656-0.073l-0.073-0.657c-0.017-0.156-0.149-0.274-0.307-0.274c-0.157,0-0.289,0.119-0.307,0.275    l-0.073,0.656l-0.656,0.073c-0.156,0.017-0.275,0.149-0.275,0.307c0,0.157,0.119,0.289,0.275,0.307l0.656,0.073l0.073,0.656    c0.017,0.156,0.149,0.275,0.307,0.275c0.157,0,0.289-0.118,0.307-0.274l0.073-0.657l0.656-0.073    c0.156-0.017,0.275-0.149,0.275-0.307C31.897,20.498,31.779,20.366,31.623,20.349z"/><path d="M3.04,24.382l-0.969-0.107l-0.107-0.969c-0.017-0.156-0.149-0.275-0.307-0.275s-0.289,0.119-0.307,0.275l-0.107,0.969    l-0.969,0.107C0.118,24.4,0,24.532,0,24.689c0,0.157,0.118,0.289,0.275,0.307l0.969,0.107l0.107,0.969    c0.017,0.156,0.149,0.275,0.307,0.275s0.289-0.119,0.307-0.275l0.107-0.969l0.969-0.107c0.156-0.017,0.275-0.149,0.275-0.307    C3.315,24.532,3.196,24.4,3.04,24.382z"/><path d="M8.042,30.243c-0.058-0.058-0.136-0.09-0.218-0.09c-0.082,0-0.16,0.033-0.218,0.09l-0.41,0.41    c-0.058,0.058-0.09,0.136-0.09,0.218s0.033,0.16,0.09,0.218l0.41,0.41c0.06,0.06,0.139,0.09,0.218,0.09    c0.079,0,0.158-0.03,0.218-0.09l0.41-0.41c0.121-0.121,0.121-0.316,0-0.436L8.042,30.243z"/><path d="M15.689,29.509c-0.121-0.121-0.316-0.121-0.436,0l-0.41,0.41c-0.121,0.121-0.121,0.316,0,0.436l0.41,0.41    c0.058,0.058,0.136,0.09,0.218,0.09s0.16-0.033,0.218-0.09l0.41-0.41c0.058-0.058,0.09-0.136,0.09-0.218s-0.033-0.16-0.09-0.218    L15.689,29.509z"/><path d="M5.272,26.763c-0.116-0.116-0.321-0.116-0.436,0l-0.41,0.41c-0.058,0.058-0.09,0.137-0.09,0.218    c0,0.082,0.033,0.16,0.09,0.218l0.41,0.41c0.06,0.06,0.139,0.09,0.218,0.09s0.158-0.03,0.218-0.09l0.41-0.41    c0.058-0.058,0.09-0.136,0.09-0.218c0-0.082-0.033-0.16-0.09-0.218L5.272,26.763z"/><path d="M1.452,18.81c0.082,0,0.16-0.033,0.218-0.09l0.41-0.41c0.058-0.058,0.09-0.137,0.09-0.218c0-0.082-0.033-0.16-0.09-0.218    l-0.41-0.41c-0.121-0.121-0.316-0.121-0.436,0l-0.41,0.41c-0.058,0.058-0.09,0.136-0.09,0.218c0,0.082,0.033,0.16,0.09,0.218    l0.41,0.41C1.292,18.777,1.37,18.81,1.452,18.81z"/><path d="M27.028,29.348c-0.058-0.058-0.136-0.09-0.218-0.09s-0.16,0.033-0.218,0.09l-0.41,0.41    c-0.058,0.058-0.09,0.136-0.09,0.218s0.033,0.16,0.09,0.218l0.41,0.41c0.06,0.06,0.139,0.09,0.218,0.09    c0.079,0,0.158-0.03,0.218-0.09l0.41-0.41c0.121-0.121,0.121-0.316,0-0.436L27.028,29.348z"/><path d="M22.334,30.653c-0.12-0.12-0.315-0.121-0.436,0l-0.41,0.41c-0.058,0.058-0.09,0.136-0.09,0.218s0.033,0.16,0.09,0.218    l0.41,0.41c0.058,0.058,0.136,0.09,0.218,0.09s0.16-0.033,0.218-0.09l0.41-0.41c0.121-0.121,0.121-0.316,0-0.436L22.334,30.653z"/>
		</g>
	</g>
</svg>
