<svg xmlns="http://www.w3.org/2000/svg" width="28" height="32" fill="white" id="galaxy">
	<path
		d="m16.063.188-.344.343c-.233.235-.473.476-.688.719-2.722 2.941-3.959 6.469-4.219 10-.156 2.133.02 4.268.438 6.281l-1.813.5c-.15-1.765-.75-3.529-2.093-4.968l-.375-.407-.344.406C3.874 16.01 4.201 20.258 5.25 23.25a.5.5 0 0 0-.031.031l-.938 2A.5.5 0 0 0 4.72 26h.625c-.178.394-.069.695.031 1.031.1.336.249.704.406 1.032.315.654.688 1.218.688 1.218l.406.657.438-.657s.353-.538.687-1.187a6.7 6.7 0 0 0 .438-1.032c.106-.341.203-.67.03-1.062h.626a.5.5 0 0 0 .469-.688l-.782-2a.5.5 0 0 0-.062-.125c.116-.336.249-.667.344-1.03l3.28-.876c.095.257.182.502.282.75.033.083.06.167.094.25l-1.156 1.969A.5.5 0 0 0 12 25h1.875a2.919 2.919 0 0 0-.406.625c-.237.528-.082 1.064.094 1.656.175.593.43 1.21.718 1.813a27.724 27.724 0 0 0 1.219 2.25l.406.687.438-.656s.671-1.026 1.281-2.219c.305-.596.596-1.243.781-1.843.186-.601.329-1.148.094-1.688a2.971 2.971 0 0 0-.375-.625h1.844a.5.5 0 0 0 .468-.719l-1.03-2c.034-.092.056-.188.093-.281.141-.353.276-.693.406-1.063L23 21.75c.058.256.118.505.188.75.074.263.163.503.25.75a.5.5 0 0 0-.032.031l-.937 2a.5.5 0 0 0 .437.719h.625c-.178.394-.068.695.032 1.031.1.336.248.704.406 1.032.315.654.656 1.218.656 1.218l.406.657.438-.657s.384-.538.718-1.187a6.7 6.7 0 0 0 .438-1.032c.106-.341.203-.67.031-1.062h.625a.5.5 0 0 0 .469-.688l-.781-2a.5.5 0 0 0-.032-.03.5.5 0 0 0 0-.032c1.05-2.992 1.377-7.241-1.375-10.188l-.375-.406-.343.406c-1.247 1.336-1.885 2.96-2.094 4.594l-1.813-.5c.37-1.912.526-3.931.375-5.937-.285-3.814-1.695-7.621-4.906-10.688l-.343-.344zm0 1.5a15.288 15.288 0 0 1 2.906 4.5h-5.813a15.286 15.286 0 0 1 2.906-4.5zm-3.407 5.5h6.813c.46 1.333.74 2.697.843 4.093.271 3.62-.507 7.323-1.718 10.344-.052.128-.104.25-.157.375h-4.75c-.047-.113-.078-.229-.124-.344-1.218-3.022-2.017-6.715-1.75-10.343.103-1.41.377-2.778.843-4.126zm3.406 1.656c-.995 0-1.812.844-1.812 1.844 0 .999.817 1.812 1.813 1.812.995 0 1.812-.813 1.812-1.813 0-.999-.817-1.843-1.813-1.843zm0 1c.445 0 .813.374.813.844 0 .469-.368.812-.813.812a.802.802 0 0 1-.812-.813c0-.469.368-.843.813-.843zM7 14.344c1.909 2.574 1.644 6.086.719 8.656h-1.5c-.926-2.575-1.139-6.081.781-8.656zm18.188 0c1.917 2.575 1.675 6.082.75 8.656h-1.5c-.925-2.57-1.16-6.082.75-8.656zm-4.47 3.781 1.97.531c-.012.391.003.802.03 1.188.02.275.057.542.095.812l-2.594-.687c.186-.599.353-1.216.5-1.844zm-9.25.406c.154.618.372 1.226.563 1.813l-2.719.718c.112-.643.15-1.325.157-2l2-.53zM13.439 23h5.187l.531 1h-6.312l.594-1zM6 24h1.969l.375 1H5.53L6 24zm18.188 0h1.968l.375 1H23.72l.468-1zm-8.22 1H16c.314 0 .607.046.844.156.245.114.48.295.718.844.04.092.064.523-.093 1.031-.157.508-.43 1.09-.719 1.657-.375.733-.574.992-.813 1.375-.227-.395-.398-.64-.75-1.375-.274-.575-.537-1.182-.687-1.688-.15-.506-.116-.92-.094-.969.22-.49.458-.713.719-.843.252-.126.55-.183.844-.188zm-9.062 1a.93.93 0 0 1 .375.063c.079.036.17.09.282.343-.025-.056-.017.126-.094.375-.078.25-.193.55-.344.844-.101.196-.123.211-.219.375-.092-.17-.121-.173-.218-.375-.145-.3-.27-.626-.344-.875-.074-.25-.024-.43-.063-.344.1-.22.188-.297.282-.343A.756.756 0 0 1 6.905 26zm18.188 0c.171 0 .265.026.343.063.079.036.17.09.282.343-.025-.056.015.126-.063.375-.077.25-.223.55-.375.844-.102.199-.122.21-.218.375-.09-.165-.094-.18-.188-.375-.144-.3-.27-.626-.344-.875-.074-.25-.055-.43-.093-.344.1-.22.188-.297.28-.343a.905.905 0 0 1 .376-.063z"
		color="#000" font-family="Sans" font-weight="400" overflow="visible"
		style="text-indent:0;text-align:start;line-height:normal;text-transform:none;block-progression:tb;marker:none;-inkscape-font-specification:Sans"></path>
</svg>